<svg width="25" height="25" viewBox="0 0 25 25" fill="none" xmlns="http://www.w3.org/2000/svg">
<path d="M7.55954 12.6006C8.59683 14.7212 10.3158 16.4324 12.4412 17.4601C12.5967 17.5337 12.7687 17.5657 12.9403 17.5527C13.1119 17.5397 13.2771 17.4823 13.4198 17.386L16.5492 15.2992C16.6877 15.2069 16.8469 15.1506 17.0126 15.1354C17.1782 15.1202 17.3451 15.1465 17.498 15.2121L23.3526 17.7212C23.5515 17.8057 23.7175 17.9525 23.8257 18.1396C23.9339 18.3266 23.9783 18.5438 23.9524 18.7583C23.7673 20.2063 23.0608 21.5372 21.9652 22.5018C20.8695 23.4664 19.4598 23.9986 18 23.9987C13.4913 23.9987 9.1673 22.2076 5.97919 19.0195C2.79107 15.8314 1 11.5073 1 6.99866C1.00008 5.53888 1.53224 4.12917 2.49685 3.0335C3.46146 1.93783 4.79237 1.23133 6.24037 1.04628C6.45489 1.02032 6.67204 1.06478 6.85909 1.17296C7.04614 1.28114 7.19298 1.44718 7.27746 1.64606L9.78877 7.5058C9.85373 7.65736 9.8802 7.82264 9.86582 7.98691C9.85144 8.15118 9.79666 8.30935 9.70636 8.44733L7.62681 11.6248C7.53216 11.7677 7.47621 11.9328 7.46442 12.1038C7.45263 12.2748 7.4854 12.446 7.55954 12.6006V12.6006Z" stroke="black" stroke-width="2" stroke-linecap="round" stroke-linejoin="round"/>
</svg>
