<svg width="99" height="33" fill="none" xmlns="http://www.w3.org/2000/svg"><path fill-rule="evenodd" clip-rule="evenodd" d="M6.3.023L0 .046v9.319c0 10.057.02 10.57.472 12.4 1.126 4.56 4.456 8.253 8.812 9.776 1.474.515 2.677.717 4.284.72.773.002 1.566-.024 1.762-.057.886-.147 2.072-.43 2.548-.609.286-.107.67-.25.852-.32.818-.307 2.013-1.008 2.96-1.737 2.833-2.176 4.672-5.256 5.31-8.89.125-.712.138-1.934.116-10.726L27.092 0h-7.245C15.862 0 9.767.01 6.3.023zm2 9.502c-.791.46-1.528.922-1.636 1.026-.32.309-.385.608-.385 1.772 0 .438.002.875.005 1.313.004.897.01 1.794-.006 2.692-.022 1.249-.056 1.872-.109 1.999-.316.76-.778 1.283-1.487 1.681l-.455.256h.306c.507.003 1.372-.155 2.013-.366 1.128-.371 1.946-1.112 2.118-1.919.04-.19.065-1.359.065-3.098v-2.793l1.398-.815 2.247.033.019 3.172c.02 3.38.007 3.567-.277 4.177-.225.482-.791 1.06-1.304 1.33-.236.125-.429.243-.429.263 0 .04 1.002-.026 1.29-.084.646-.13 1.294-.32 1.865-.658l-.003-.004c.247-.16.57-.41.711-.567a2.92 2.92 0 00.368-.55l.15-.305.017-2.963c.016-2.71.027-2.972.122-3.056.058-.05.376-.248.708-.439l.602-.347h2.257l.001 3.908.001 1.045c.001 1.974-.04 2.203-.519 2.856-.3.41-.573.642-1.137.965l-.398.228.55-.035c1.6-.102 2.986-.691 3.55-1.509.393-.57.402-.654.402-3.796v-2.848l1.869-1.094.002-1.042c.002-.504.002-.71-.095-.846-.067-.094-.18-.154-.372-.255l-.07-.038-.276-.147-1.371.791c-.754.435-1.445.842-1.534.904-.143.1-.297.113-1.271.113h-1.109V9.126l-.37-.219c-.205-.12-.4-.218-.436-.218-.058 0-1.338.733-2.603 1.49l-.499.299-2.187-.034-.062-1.347-.336-.201c-.186-.111-.365-.203-.399-.205-.033 0-.709.374-1.5.834zm2.189 2.544c-.267.297-.304.365-.47.87-.164.498-.227 1.611-.132 2.309.18 1.299.215 1.875.145 2.29-.091.534-.418 1.19-.814 1.636-.173.194-.281.354-.24.354.15 0 .77-.404 1.048-.683.325-.325.61-.854.724-1.342.105-.447.049-1.61-.126-2.594-.19-1.075-.194-2.237-.009-2.706.073-.184.124-.344.112-.356-.005-.005-.031.014-.07.05-.044.04-.104.101-.168.172zm5.564 3.704c-.226-1.828-.067-3.023.49-3.689.175-.21.313-.258.241-.085-.268.65-.284 1.526-.054 2.98.335 2.117.16 3.129-.68 3.927-.305.29-.928.664-.994.598-.018-.018.098-.18.258-.358.805-.9.958-1.599.739-3.373zm56.836 4.043c.437.28.898.419 1.383.419.06 0 .485-.297 1.273-.892l.546-.418v.71c0 .06.09.175.273.345.182.17.297.255.345.255.11 0 .643-.097 1.601-.291v-.673l-.618-.255v-6.712l.09-3.384c0-.06-.09-.176-.272-.345-.182-.17-.303-.255-.364-.255-.097 0-.649.097-1.656.291v.673l.637.255v2.42c-.885-.134-1.425-.201-1.619-.201-.218 0-.667.23-1.346.691-.667.461-1.097.83-1.291 1.11-.134.267-.243.649-.328 1.146-.073.497-.109 1.055-.109 1.673 0 .85.133 1.565.4 2.147.28.57.63 1 1.055 1.291zm3.147-1.655c-.994.485-1.546.728-1.655.728-.146 0-.315-.097-.51-.291-.181-.194-.345-.498-.49-.91-.134-.412-.2-.928-.2-1.546 0-1.213.054-2.062.163-2.547.121-.485.297-.746.528-.782.157-.024.473.006.945.091.474.073.88.158 1.22.255v5.002zm-41.6 1.51l1.054-.218V9.866l-1.055-.2v-.4h4.111a3.53 3.53 0 011.82.491c.557.328 1.012.873 1.364 1.637.351.764.527 1.765.527 3.002 0 1.928-.321 3.359-.964 4.293-.643.921-1.558 1.382-2.747 1.382h-4.11v-.4zm4.292-.182c.788 0 1.425-.4 1.91-1.2.497-.801.746-2.08.746-3.839 0-.97-.121-1.8-.364-2.492-.242-.703-.564-1.23-.964-1.582-.4-.352-.843-.528-1.328-.528l-2.401.073v9.495l2.401.073zm8.319.764c-.934 0-1.655-.334-2.165-1-.51-.68-.764-1.644-.764-2.893 0-.594.049-1.14.146-1.637.097-.497.23-.891.4-1.182a3.52 3.52 0 01.764-.837c.315-.267.625-.48.928-.637.315-.157.54-.236.673-.236.885 0 1.54.29 1.964.873.437.582.661 1.588.673 3.02l-4.711.436c0 2.28.77 3.42 2.31 3.42.11 0 .813-.06 2.11-.182v.436c-1.237.28-2.013.419-2.328.419zm1.764-5.002c-.036-1.868-.624-2.802-1.764-2.802-.121 0-.279.049-.473.146-.194.085-.388.2-.582.345-.63.485-.97 1.383-1.019 2.693l3.838-.382zm3.178 4.838c.121.11.2.164.236.164.11 0 .558-.079 1.346-.237v-.4l-.946-.073v-5.711c1.092-.837 1.692-1.256 1.801-1.256.352 0 .643.043.873.128.23.073.419.255.564.546.158.278.237.709.237 1.291v5.33c0 .048.06.121.182.218.12.11.206.164.254.164.097 0 .54-.079 1.328-.237v-.4l-.946-.073v-5.711c1.08-.837 1.674-1.256 1.783-1.256.34 0 .624.049.855.146.242.085.443.291.6.619.158.315.237.806.237 1.473v5.057c0 .048.06.121.181.218.122.11.207.164.255.164.097 0 .54-.079 1.328-.237v-.4l-.946-.073v-4.547c0-.813-.09-1.443-.273-1.892-.182-.46-.467-.782-.855-.964-.376-.194-.891-.291-1.546-.291-.036 0-.26.17-.673.51-.4.327-.752.624-1.055.89-.157-.485-.436-.836-.837-1.055-.4-.23-.933-.345-1.6-.345-.049 0-.297.182-.746.546-.449.351-.794.636-1.037.855l.018-1.02c0-.036-.06-.108-.182-.217-.121-.11-.2-.164-.236-.164-.11 0-.552.079-1.328.236v.4l.946.073v7.313c0 .036.06.109.182.218zm14.873.164c-1.043 0-1.85-.322-2.42-.964-.57-.643-.854-1.631-.854-2.965 0-.57.048-1.104.145-1.601.097-.497.23-.891.4-1.182a3.52 3.52 0 01.764-.837c.316-.267.625-.48.928-.637.315-.157.54-.236.673-.236 1.08 0 1.904.327 2.474.982.57.655.855 1.625.855 2.91 0 .607-.06 1.189-.182 1.747-.121.558-.279.982-.473 1.273-.218.291-.606.619-1.164.982-.546.352-.928.528-1.146.528zm-.018-.619c.181-.012.448-.127.8-.345.352-.219.6-.413.746-.582.17-.243.309-.613.418-1.11.11-.51.164-1.11.164-1.8 0-1.056-.212-1.874-.637-2.457-.424-.594-1.03-.89-1.819-.89-.279 0-.63.163-1.055.49-.364.291-.63.698-.8 1.22-.158.508-.237 1.206-.237 2.091 0 1.067.2 1.898.6 2.492.413.582 1.02.88 1.82.891zm15.635.6c-.498 0-.964-.139-1.4-.418-.425-.29-.771-.733-1.038-1.328-.266-.594-.4-1.334-.4-2.219 0-.57.036-1.097.11-1.582.084-.498.193-.873.327-1.128.194-.28.624-.649 1.291-1.11.68-.46 1.128-.691 1.346-.691.243 0 1.304.14 3.183.418v6.84l.619.255v.673c-.958.194-1.492.29-1.6.29-.05 0-.165-.084-.346-.254-.182-.17-.273-.285-.273-.346v-.709c-.073.06-.376.297-.91.71-.533.4-.837.6-.91.6zm.109-1.345c.133 0 .685-.243 1.655-.728v-5.002a7.781 7.781 0 00-1.182-.255c-.485-.085-.813-.115-.982-.091-.23.036-.407.297-.528.782-.11.485-.164 1.334-.164 2.547 0 .618.067 1.134.2 1.546.146.412.31.716.492.91.194.194.363.29.509.29zm6.025 1.091c.182.17.303.255.364.255.11 0 .661-.097 1.655-.291v-.673l-.618-.273v-5.185c.86-.46 1.352-.69 1.473-.69.267 0 .51.096.728.29.218.194.327.667.327 1.42v4.801c0 .061.091.176.273.346.182.17.303.255.364.255.097 0 .643-.097 1.637-.291v-.673l-.618-.273v-5.185c.812-.46 1.273-.69 1.382-.69.291 0 .552.096.782.29.243.194.364.667.364 1.42v4.801c0 .061.091.176.273.346.182.17.303.255.364.255.097 0 .642-.097 1.637-.291v-.673l-.618-.273v-4.166c0-1.128-.243-1.916-.728-2.365-.485-.46-1.207-.69-2.165-.69-.036 0-.224.145-.564.436-.34.29-.654.57-.946.837-.181-.461-.479-.789-.89-.983-.401-.194-.904-.29-1.51-.29-.037 0-.237.145-.601.436-.364.29-.703.57-1.019.837v-.692c0-.06-.085-.17-.254-.327-.158-.17-.267-.255-.328-.255-.109 0-.66.091-1.655.273v.673l.637.273v6.64c0 .06.085.175.254.345z" fill="#CB3E03"/></svg>