<svg width="520" height="121" viewBox="0 0 520 121" fill="none" xmlns="http://www.w3.org/2000/svg">
<path fill-rule="evenodd" clip-rule="evenodd" d="M264.447 370.32C210.817 372.713 159.077 405.414 109.229 390.24C56.568 374.209 9.87938 334.849 4.37917 291.152C-1.02717 248.2 58.0563 218.702 82.7458 179.837C102.096 149.377 106.132 115.275 133.118 88.4962C168.023 53.8578 203.388 12.2492 259.156 4.77626C316.731 -2.93893 372.715 23.0448 419.134 50.1695C464.357 76.5948 510.315 110.805 515.587 154.619C520.628 196.504 463.626 225.779 445.039 265.445C427.823 302.185 451.92 353.278 411.497 376.752C371.069 400.23 314.733 368.076 264.447 370.32Z" fill="#77C0D1"/>
</svg>
