<svg xmlns="http://www.w3.org/2000/svg" width="29" height="29" fill="none"><circle cx="14.177" cy="14.177" r="13.677" stroke="#000"/><path d="M14.579 17.328h-1.245v-1.066c0-.332.036-.629.107-.89.083-.272.19-.515.32-.728.142-.214.296-.403.462-.57.178-.177.356-.349.534-.515l.497-.444c.297-.237.54-.51.73-.818.2-.308.301-.693.301-1.155 0-.332-.059-.629-.177-.89a1.928 1.928 0 00-.48-.657 2.108 2.108 0 00-.711-.409 2.48 2.48 0 00-.854-.142c-.64 0-1.161.195-1.564.586-.391.392-.634.89-.73 1.494l-1.208-.214c.178-.924.58-1.647 1.209-2.168.64-.534 1.422-.8 2.347-.8.474 0 .918.07 1.333.213.427.13.794.332 1.102.604.308.261.551.587.729.978.19.391.284.836.284 1.333 0 .38-.041.712-.124.996-.083.284-.202.54-.356.764a3.199 3.199 0 01-.515.623 36.61 36.61 0 01-.64.55c-.249.202-.462.386-.64.552a2.46 2.46 0 00-.409.533c-.107.178-.184.38-.231.605a4.035 4.035 0 00-.071.817zm.462 2.56a.996.996 0 01-.267.676.907.907 0 01-.693.284.907.907 0 01-.693-.284.996.996 0 01-.267-.676c0-.249.089-.468.267-.658a.881.881 0 01.693-.302c.284 0 .516.1.693.302.178.19.267.41.267.658z" fill="#000"/></svg>