<svg width="204" height="243" viewBox="0 0 204 243" fill="none" xmlns="http://www.w3.org/2000/svg">
<circle cx="96.0436" cy="146.495" r="96.0436" fill="white"/>
<path d="M91.5906 186.137L77.2711 190.148L105.842 190.384L91.5906 186.137ZM39.7298 130.485C39.5926 130.399 40.1339 130.746 41.4336 131.965C42.6188 133.078 44.1065 134.605 45.8327 136.536C49.2816 140.394 53.3733 145.518 57.5143 151.433C65.9408 163.468 73.764 177.627 77.2711 190.148L105.91 182.127C101.125 165.043 91.2331 147.737 81.8778 134.375C77.1279 127.591 72.3121 121.532 68.0066 116.715C64.0477 112.287 59.5516 107.797 55.4747 105.253L39.7298 130.485ZM105.842 190.384C111.04 172.941 123.032 142.378 140.253 111.53C157.607 80.4446 179.375 50.7059 203.527 33.2625L186.113 9.1521C156.731 30.3727 132.403 64.5789 114.285 97.0325C96.0347 129.723 83.1787 162.294 77.3393 181.891L105.842 190.384Z" fill="#77C0D1"/>
</svg>
