<svg width="125" height="35" fill="none" xmlns="http://www.w3.org/2000/svg"><path d="M2.364 14.527h1.577v12.137H2.364V14.526zM1.97 9.719c0-.333.114-.613.342-.841.228-.228.508-.341.84-.341.333 0 .614.113.841.341.228.228.342.508.342.84 0 .334-.114.614-.342.841a1.143 1.143 0 01-.84.342c-.333 0-.613-.114-.841-.342a1.143 1.143 0 01-.342-.84zm17.057 14.817h-.053a4.29 4.29 0 01-.92 1.104c-.367.297-.77.551-1.208.761-.42.193-.867.333-1.34.42a6.869 6.869 0 01-3.967-.315 5.94 5.94 0 01-2.022-1.313 6.3 6.3 0 01-1.314-2.023 6.87 6.87 0 01-.473-2.575c0-.928.158-1.777.473-2.548a5.943 5.943 0 011.314-2.023 5.756 5.756 0 012.023-1.34 6.87 6.87 0 013.967-.315c.472.087.919.236 1.34.447.437.192.84.446 1.208.761a3.9 3.9 0 01.92 1.077h.052V6.803h1.576v19.861h-1.576v-2.128zm.158-3.94c0-.684-.132-1.323-.394-1.919a4.76 4.76 0 00-1.078-1.576 5.015 5.015 0 00-3.6-1.471c-.735 0-1.4.131-1.996.394a4.538 4.538 0 00-1.523 1.077c-.42.438-.745.963-.972 1.576a5.722 5.722 0 00-.316 1.918c0 .683.105 1.331.316 1.944.227.596.551 1.121.972 1.577.42.438.928.788 1.524 1.05.595.263 1.26.395 1.996.395.718 0 1.384-.132 1.997-.394a5.298 5.298 0 001.602-1.051c.456-.456.815-.981 1.078-1.577a4.884 4.884 0 00.394-1.944zm13.59-2.76a5.032 5.032 0 00-1.155-.919 2.482 2.482 0 00-1.235-.341c-.578 0-1.095.105-1.55.315-.455.21-.85.49-1.182.84-.316.35-.56.754-.736 1.21a4.307 4.307 0 00-.236 1.418c0 .49.078.963.236 1.418.175.456.42.859.736 1.209.332.35.727.63 1.182.84.455.21.972.316 1.55.316.49 0 .946-.096 1.366-.289.42-.21.78-.508 1.077-.893l2.102 2.26a4.739 4.739 0 01-1.103.814 7.01 7.01 0 01-2.444.84c-.385.07-.718.105-.998.105a7.568 7.568 0 01-2.68-.473 6.428 6.428 0 01-2.18-1.34 6.565 6.565 0 01-1.471-2.075c-.35-.823-.526-1.734-.526-2.732 0-.999.175-1.9.526-2.706a6.486 6.486 0 011.47-2.102 6.428 6.428 0 012.181-1.34 7.57 7.57 0 012.68-.473c.806 0 1.611.158 2.417.473.823.298 1.541.78 2.154 1.445l-2.18 2.18zm3.427 2.523c0-.999.175-1.9.526-2.706a6.486 6.486 0 011.47-2.102 6.428 6.428 0 012.181-1.34 7.57 7.57 0 012.68-.473 7.57 7.57 0 012.68.473c.84.316 1.567.762 2.18 1.34a6.166 6.166 0 011.445 2.102c.368.806.552 1.707.552 2.706 0 .998-.184 1.909-.552 2.732a6.23 6.23 0 01-1.445 2.076 6.428 6.428 0 01-2.18 1.34 7.568 7.568 0 01-2.68.472 7.568 7.568 0 01-2.68-.473 6.428 6.428 0 01-2.18-1.34 6.565 6.565 0 01-1.471-2.075c-.35-.823-.526-1.734-.526-2.732zm3.153 0c0 .49.079.963.236 1.418.175.456.42.859.736 1.209.333.35.727.63 1.182.84.455.21.972.316 1.55.316.578 0 1.095-.105 1.55-.315.456-.21.84-.49 1.156-.841.333-.35.578-.753.736-1.209.175-.455.262-.928.262-1.418 0-.49-.087-.964-.262-1.419a3.305 3.305 0 00-.736-1.208c-.315-.35-.7-.63-1.156-.841-.455-.21-.972-.315-1.55-.315-.578 0-1.095.105-1.55.315-.455.21-.85.49-1.182.84-.315.35-.56.754-.736 1.21a4.307 4.307 0 00-.236 1.418zm13.513-6.305h2.995v2.022h.052c.298-.63.753-1.173 1.366-1.628.613-.473 1.445-.71 2.496-.71.84 0 1.55.14 2.128.42.596.28 1.077.649 1.445 1.104.368.455.63.98.788 1.576.158.596.237 1.218.237 1.866v7.96h-3.153V20.28c0-.35-.017-.736-.052-1.156a3.819 3.819 0 00-.29-1.208c-.14-.386-.367-.701-.682-.946-.316-.263-.745-.394-1.288-.394-.525 0-.972.087-1.34.262-.35.175-.648.412-.893.71-.228.298-.394.639-.499 1.024a4.573 4.573 0 00-.158 1.209v6.883h-3.152v-12.61zm13.614 2.68v-2.68h2.601v-3.652h3.153v3.652h3.468v2.68h-3.468v5.516c0 .63.114 1.13.341 1.498.246.368.718.552 1.419.552.28 0 .587-.027.92-.08.332-.07.595-.174.788-.314v2.653c-.333.158-.745.263-1.235.315-.473.07-.893.105-1.261.105-.84 0-1.533-.096-2.076-.289-.525-.175-.945-.446-1.26-.814-.298-.385-.509-.858-.631-1.419a10.643 10.643 0 01-.158-1.944v-5.78h-2.6zm43.621 1.103a5.032 5.032 0 00-1.156-.92 2.48 2.48 0 00-1.235-.341c-.578 0-1.094.105-1.55.315a3.83 3.83 0 00-1.182.84c-.315.35-.56.754-.735 1.21a4.298 4.298 0 00-.237 1.418c0 .49.079.963.237 1.418.175.456.42.859.735 1.209.333.35.727.63 1.182.84.456.21.972.316 1.55.316.491 0 .946-.096 1.367-.289.42-.21.779-.508 1.077-.893l2.101 2.26a4.74 4.74 0 01-1.103.814 7 7 0 01-2.443.84c-.386.07-.718.105-.999.105a7.564 7.564 0 01-2.679-.473 6.426 6.426 0 01-2.181-1.34 6.567 6.567 0 01-1.471-2.075c-.35-.823-.526-1.734-.526-2.732 0-.999.176-1.9.526-2.706a6.489 6.489 0 011.471-2.102 6.427 6.427 0 012.181-1.34 7.566 7.566 0 012.679-.473c.806 0 1.612.158 2.417.473.824.298 1.542.78 2.155 1.445l-2.181 2.18zm2.586-1.104v-2.68h2.601v-3.651h3.152v3.652h3.468v2.68h-3.468v5.516c0 .63.114 1.13.342 1.498.245.368.718.552 1.419.552.28 0 .586-.027.919-.08.333-.07.596-.174.788-.314v2.653c-.333.158-.744.263-1.235.315-.472.07-.893.105-1.261.105-.84 0-1.532-.096-2.075-.289-.525-.175-.946-.446-1.261-.814-.298-.385-.508-.858-.631-1.419a10.656 10.656 0 01-.157-1.944v-5.78h-2.601z" fill="#51393A"/><path d="M88.169 33.69c7.113 0 12.88-5.767 12.88-12.88 0-.154-.003-.308-.008-.46l-6.809.923v.904c-.213 2.718-1.227 5.353-5.242 5.926l-.93.1c-.378.01-.567.007-.766.004-.103-.002-.209-.003-.344-.003a6.57 6.57 0 01-1.786-.248 4.992 4.992 0 01-1.539-.742 3.88 3.88 0 01-1.071-1.236c-.275-.495-.413-1.072-.413-1.731 0-.715.129-1.32.385-1.814a3.65 3.65 0 011.017-1.264c.44-.348.943-.623 1.511-.824a9.505 9.505 0 011.759-.44c.342-.06.685-.107 1.028-.14v.005l3.423-.464V19.3c0-.824-.284-1.438-.852-1.84-.568-.422-1.291-.633-2.17-.633h-.046v-2.464c.134-.006.268-.008.403-.008.934 0 1.722.11 2.363.33.641.2 1.172.466 1.594.796.421.33.742.715.962 1.154.238.421.403.852.494 1.292.083.333.14.66.171.983l6.563-.89c-1.274-5.772-6.421-10.09-12.577-10.09a12.875 12.875 0 00-11.148 6.425h11.174v2.47H75.917a12.87 12.87 0 00-.628 3.985c0 7.113 5.767 12.88 12.88 12.88z" fill="#51393A"/><path d="M87.84 22.14l3.424-.465v.502c-.035 1.097-.219 1.959-1.016 2.757-.532.531-1.365.796-2.501.796-.275 0-.55-.027-.824-.082a2.475 2.475 0 01-.742-.33 2.136 2.136 0 01-.55-.522A1.555 1.555 0 0185.44 24c0-.476.174-.842.522-1.099a3.38 3.38 0 011.264-.604c.201-.058.406-.107.616-.147v-.01z" fill="#51393A"/></svg>