<svg width="28" height="28" fill="none" xmlns="http://www.w3.org/2000/svg"><path d="M18.165 1.73a11.48 11.48 0 018.105 8.103m-9.29-3.675a6.888 6.888 0 014.863 4.862M8.579 13.878a12.081 12.081 0 005.593 5.568 1.136 1.136 0 001.121-.085l3.586-2.391a1.145 1.145 0 011.087-.1l6.709 2.875a1.142 1.142 0 01.687 1.188 6.876 6.876 0 01-6.82 6.005 19.48 19.48 0 01-19.48-19.48A6.876 6.876 0 017.067.638a1.142 1.142 0 011.188.687l2.878 6.715a1.147 1.147 0 01-.094 1.079l-2.383 3.64a1.136 1.136 0 00-.077 1.119z" stroke="#fff" stroke-linecap="round" stroke-linejoin="round"/></svg>