<svg width="32" height="34" viewBox="0 0 32 34" fill="none" xmlns="http://www.w3.org/2000/svg">
<path fill-rule="evenodd" clip-rule="evenodd" d="M13.1203 1.11382C10.3675 0.941561 7.64649 1.78015 5.46822 3.47213C3.28995 5.1641 1.80427 7.59308 1.29015 10.3029C0.776796 13.0088 1.26739 15.8088 2.6698 18.1788C2.74977 18.307 2.77489 18.466 2.73154 18.6177L1.55997 22.7182C1.53824 22.7942 1.53725 22.8747 1.55709 22.9513C1.57693 23.0278 1.61688 23.0977 1.67281 23.1536C1.72873 23.2096 1.7986 23.2495 1.87516 23.2694C1.95173 23.2892 2.03221 23.2882 2.10825 23.2665L6.20873 22.0949C6.35861 22.0521 6.51778 22.0758 6.64728 22.1564C9.01736 23.559 11.8176 24.0497 14.5236 23.5363C17.2334 23.0222 19.6624 21.5365 21.3543 19.3582C23.0463 17.1799 23.8849 14.4589 23.7126 11.7061C23.5403 8.95327 22.3691 6.35803 20.4187 4.40769C18.4684 2.45736 15.8731 1.28609 13.1203 1.11382ZM6.28532 23.2084C8.84199 24.6598 11.8336 25.1578 14.7271 24.6089C17.6982 24.0452 20.3614 22.4162 22.2165 20.0279C24.0716 17.6395 24.9911 14.6561 24.8022 11.6379C24.6133 8.61963 23.3291 5.77414 21.1907 3.63574C19.0523 1.49734 16.2068 0.213124 13.1885 0.0242482C10.1702 -0.164627 7.18684 0.754827 4.79853 2.60996C2.41021 4.46509 0.781267 7.12828 0.217575 10.0994C-0.331363 12.9928 0.16669 15.9845 1.61803 18.5411L0.510267 22.4183C0.435053 22.6815 0.431606 22.9601 0.500282 23.2251C0.568957 23.4902 0.707258 23.732 0.900852 23.9256C1.09445 24.1192 1.33629 24.2575 1.60132 24.3262C1.86634 24.3948 2.14492 24.3914 2.40817 24.3162L6.28532 23.2084Z" fill="black"/>
<path fill-rule="evenodd" clip-rule="evenodd" d="M6.5293 9.15158C6.5293 8.92548 6.71259 8.74219 6.93869 8.74219L10.4867 8.74219C10.7128 8.74219 10.8961 8.92548 10.8961 9.15158C10.8961 9.37768 10.7128 9.56097 10.4867 9.56097L6.93869 9.56097C6.71259 9.56097 6.5293 9.37768 6.5293 9.15158Z" fill="black"/>
<path fill-rule="evenodd" clip-rule="evenodd" d="M6.5293 12.425C6.5293 12.1989 6.71259 12.0156 6.93869 12.0156L12.6702 12.0156C12.8963 12.0156 13.0795 12.1989 13.0795 12.425C13.0795 12.6511 12.8963 12.8344 12.6702 12.8344L6.93869 12.8344C6.71259 12.8344 6.5293 12.6511 6.5293 12.425Z" fill="black"/>
<path fill-rule="evenodd" clip-rule="evenodd" d="M6.5293 15.7004C6.5293 15.4743 6.71259 15.291 6.93869 15.291L12.6702 15.291C12.8963 15.291 13.0795 15.4743 13.0795 15.7004C13.0795 15.9265 12.8963 16.1098 12.6702 16.1098H6.93869C6.71259 16.1098 6.5293 15.9265 6.5293 15.7004Z" fill="black"/>
<path d="M17.9459 16.0754C18.2581 16.1089 18.4142 16.2538 18.4142 16.5102C18.4142 16.644 18.364 16.7499 18.2637 16.8279C18.1633 16.906 18.0017 16.9394 17.7787 16.9283L17.3105 16.8948C16.4633 16.8391 15.8334 16.5827 15.4209 16.1256C15.0196 15.6574 14.8189 14.9495 14.8189 14.0019V9.55387H13.5481C13.4143 9.55387 13.3084 9.52042 13.2303 9.45354C13.1523 9.3755 13.1133 9.27517 13.1133 9.15254C13.1133 9.02991 13.1523 8.92958 13.2303 8.85154C13.3084 8.77351 13.4143 8.73449 13.5481 8.73449H14.8189V6.66096C14.8189 6.49374 14.8635 6.36554 14.9527 6.27635C15.0419 6.18717 15.1645 6.14258 15.3206 6.14258C15.4767 6.14258 15.5993 6.18717 15.6885 6.27635C15.7888 6.36554 15.839 6.49374 15.839 6.66096V8.73449H17.8623C18.0073 8.73449 18.1187 8.77351 18.1968 8.85154C18.2748 8.92958 18.3138 9.02991 18.3138 9.15254C18.3138 9.27517 18.2748 9.3755 18.1968 9.45354C18.1187 9.52042 18.0073 9.55387 17.8623 9.55387H15.839V14.0521C15.839 14.7433 15.9727 15.2394 16.2403 15.5403C16.5078 15.8302 16.9259 15.9974 17.4944 16.042L17.9459 16.0754Z" fill="black"/>
<path d="M25.3535 19.3479V15.3981C25.3535 14.9952 25.5136 14.6088 25.7985 14.3239C26.0834 14.039 26.4698 13.8789 26.8727 13.8789C27.2756 13.8789 27.662 14.039 27.9469 14.3239C28.2318 14.6088 28.3918 14.9952 28.3918 15.3981V21.4747" fill="#FFCB14"/>
<path fill-rule="evenodd" clip-rule="evenodd" d="M26.872 14.3073C26.5831 14.3073 26.3061 14.422 26.1019 14.6263C25.8976 14.8305 25.7828 15.1076 25.7828 15.3964V19.3463C25.7828 19.5837 25.5903 19.7762 25.3528 19.7762C25.1154 19.7762 24.9229 19.5837 24.9229 19.3463V15.3964C24.9229 14.8795 25.1282 14.3837 25.4937 14.0182C25.8593 13.6526 26.3551 13.4473 26.872 13.4473C27.389 13.4473 27.8847 13.6526 28.2503 14.0182C28.6158 14.3837 28.8212 14.8795 28.8212 15.3964V21.4731C28.8212 21.7106 28.6287 21.9031 28.3912 21.9031C28.1537 21.9031 27.9612 21.7106 27.9612 21.4731V15.3964C27.9612 15.1076 27.8464 14.8305 27.6422 14.6263C27.4379 14.422 27.1609 14.3073 26.872 14.3073Z" fill="black"/>
<path d="M22.3145 19.9561V14.1832C22.3145 13.7803 22.4745 13.3939 22.7594 13.109C23.0443 12.8241 23.4307 12.6641 23.8336 12.6641C24.2365 12.6641 24.6229 12.8241 24.9078 13.109C25.1927 13.3939 25.3528 13.7803 25.3528 14.1832V19.3484" fill="#FFCB14"/>
<path fill-rule="evenodd" clip-rule="evenodd" d="M23.8339 13.0924C23.5451 13.0924 23.268 13.2072 23.0638 13.4114C22.8595 13.6157 22.7448 13.8927 22.7448 14.1816V19.9544C22.7448 20.1919 22.5522 20.3844 22.3148 20.3844C22.0773 20.3844 21.8848 20.1919 21.8848 19.9544V14.1816C21.8848 13.6646 22.0901 13.1689 22.4557 12.8033C22.8212 12.4378 23.317 12.2324 23.8339 12.2324C24.3509 12.2324 24.8466 12.4378 25.2122 12.8033C25.5777 13.1689 25.7831 13.6646 25.7831 14.1816V19.3467C25.7831 19.5842 25.5906 19.7767 25.3531 19.7767C25.1156 19.7767 24.9231 19.5842 24.9231 19.3467V14.1816C24.9231 13.8927 24.8083 13.6157 24.6041 13.4114C24.3998 13.2072 24.1228 13.0924 23.8339 13.0924Z" fill="black"/>
<path d="M25.353 24.5123C25.353 23.7065 25.6731 22.9337 26.2429 22.3639C26.8127 21.7941 27.5855 21.474 28.3914 21.474V19.9548C28.3914 19.5519 28.5514 19.1655 28.8363 18.8806C29.1212 18.5957 29.5076 18.4357 29.9105 18.4357C30.3134 18.4357 30.6998 18.5957 30.9847 18.8806C31.2696 19.1655 31.4297 19.5519 31.4297 19.9548V22.9932C31.4297 24.6048 30.7895 26.1504 29.6499 27.29C28.5103 28.4296 26.9647 29.0698 25.353 29.0698C23.7414 29.0698 22.1958 28.4296 21.0562 27.29C19.9166 26.1504 19.2764 24.6048 19.2764 22.9932V17.2203C19.2764 16.8174 19.4364 16.431 19.7213 16.1461C20.0062 15.8612 20.3926 15.7012 20.7955 15.7012C21.1984 15.7012 21.5848 15.8612 21.8697 16.1461C22.1546 16.431 22.3147 16.8174 22.3147 17.2203V19.9548" fill="#FFCB14"/>
<path fill-rule="evenodd" clip-rule="evenodd" d="M20.7958 16.1315C20.507 16.1315 20.2299 16.2462 20.0257 16.4505C19.8214 16.6547 19.7067 16.9318 19.7067 17.2206V22.9935C19.7067 24.4911 20.3016 25.9273 21.3605 26.9863C22.4195 28.0452 23.8557 28.6401 25.3533 28.6401C26.8509 28.6401 28.2872 28.0452 29.3461 26.9863C30.4051 25.9273 31 24.4911 31 22.9935V19.9551C31 19.6663 30.8852 19.3892 30.681 19.185C30.4767 18.9807 30.1997 18.866 29.9108 18.866C29.622 18.866 29.3449 18.9807 29.1407 19.185C28.9364 19.3892 28.8217 19.6663 28.8217 19.9551V21.4743C28.8217 21.7118 28.6291 21.9043 28.3917 21.9043C27.6999 21.9043 27.0364 22.1791 26.5473 22.6683C26.0581 23.1574 25.7833 23.8209 25.7833 24.5126C25.7833 24.7501 25.5908 24.9426 25.3533 24.9426C25.1159 24.9426 24.9233 24.7501 24.9233 24.5126C24.9233 23.5928 25.2887 22.7106 25.9392 22.0602C26.4874 21.5119 27.2003 21.1662 27.9617 21.0711V19.9551C27.9617 19.4382 28.167 18.9424 28.5326 18.5769C28.8981 18.2113 29.3939 18.006 29.9108 18.006C30.4278 18.006 30.9236 18.2113 31.2891 18.5769C31.6546 18.9424 31.86 19.4382 31.86 19.9551V22.9935C31.86 24.7191 31.1745 26.3741 29.9542 27.5944C28.734 28.8146 27.079 29.5001 25.3533 29.5001C23.6277 29.5001 21.9727 28.8146 20.7524 27.5944C19.5322 26.3741 18.8467 24.7191 18.8467 22.9935V17.2206C18.8467 16.7037 19.052 16.2079 19.4176 15.8424C19.7831 15.4768 20.2789 15.2715 20.7958 15.2715C21.3128 15.2715 21.8086 15.4768 22.1741 15.8424C22.5396 16.2079 22.745 16.7037 22.745 17.2206V19.9551C22.745 20.1926 22.5525 20.3851 22.315 20.3851C22.0775 20.3851 21.885 20.1926 21.885 19.9551V17.2206C21.885 16.9318 21.7703 16.6547 21.566 16.4505C21.3617 16.2462 21.0847 16.1315 20.7958 16.1315Z" fill="black"/>
<path d="M19.5427 27.3789L23.4926 27.3789C23.8955 27.3789 24.2819 27.2189 24.5668 26.934C24.8517 26.6491 25.0117 26.2626 25.0117 25.8597C25.0117 25.4568 24.8517 25.0704 24.5668 24.7855C24.2819 24.5006 23.8955 24.3406 23.4926 24.3406L17.4159 24.3406" fill="#FFCB14"/>
<path fill-rule="evenodd" clip-rule="evenodd" d="M24.5824 25.8614C24.5824 26.1503 24.4676 26.4273 24.2634 26.6315C24.0591 26.8358 23.7821 26.9506 23.4932 26.9506L19.5434 26.9506C19.3059 26.9506 19.1134 27.1431 19.1134 27.3806C19.1134 27.618 19.3059 27.8105 19.5434 27.8105L23.4932 27.8105C24.0102 27.8105 24.5059 27.6052 24.8715 27.2397C25.237 26.8741 25.4424 26.3783 25.4424 25.8614C25.4424 25.3444 25.237 24.8487 24.8715 24.4831C24.5059 24.1176 24.0102 23.9122 23.4932 23.9122L17.4166 23.9122C17.1791 23.9122 16.9866 24.1047 16.9866 24.3422C16.9866 24.5797 17.1791 24.7722 17.4166 24.7722L23.4932 24.7722C23.7821 24.7722 24.0591 24.887 24.2634 25.0912C24.4676 25.2955 24.5824 25.5725 24.5824 25.8614Z" fill="black"/>
<path d="M18.9355 30.418L24.7084 30.418C25.1113 30.418 25.4977 30.2579 25.7826 29.973C26.0675 29.6881 26.2275 29.3017 26.2275 28.8988C26.2275 28.4959 26.0675 28.1095 25.7826 27.8246C25.4977 27.5397 25.1113 27.3796 24.7084 27.3796L19.5432 27.3796" fill="#FFCB14"/>
<path fill-rule="evenodd" clip-rule="evenodd" d="M25.7972 28.8985C25.7972 29.1874 25.6825 29.4644 25.4782 29.6687C25.274 29.8729 24.9969 29.9877 24.7081 29.9877L18.9352 29.9877C18.6978 29.9877 18.5052 30.1802 18.5052 30.4177C18.5052 30.6551 18.6978 30.8477 18.9352 30.8477L24.7081 30.8477C25.225 30.8477 25.7208 30.6423 26.0863 30.2768C26.4519 29.9112 26.6572 29.4154 26.6572 28.8985C26.6572 28.3815 26.4519 27.8858 26.0863 27.5202C25.7208 27.1547 25.225 26.9493 24.7081 26.9493L19.5429 26.9493C19.3054 26.9493 19.1129 27.1419 19.1129 27.3793C19.1129 27.6168 19.3054 27.8093 19.5429 27.8093L24.7081 27.8093C24.9969 27.8093 25.274 27.9241 25.4782 28.1283C25.6825 28.3326 25.7972 28.6096 25.7972 28.8985Z" fill="black"/>
<path d="M14.3783 27.3784C15.1841 27.3784 15.9569 27.0583 16.5267 26.4885C17.0965 25.9187 17.4166 25.1459 17.4166 24.3401L18.9358 24.3401C19.3387 24.3401 19.7251 24.18 20.01 23.8951C20.2949 23.6102 20.455 23.2238 20.455 22.8209C20.455 22.418 20.2949 22.0316 20.01 21.7467C19.7251 21.4618 19.3387 21.3018 18.9358 21.3018L15.8975 21.3018C14.2858 21.3018 12.7402 21.942 11.6006 23.0816C10.461 24.2212 9.82081 25.7668 9.82081 27.3784C9.82081 28.9901 10.461 30.5357 11.6006 31.6753C12.7402 32.8149 14.2858 33.4551 15.8975 33.4551L21.6703 33.4551C22.0732 33.4551 22.4596 33.295 22.7445 33.0101C23.0294 32.7252 23.1895 32.3388 23.1895 31.9359C23.1895 31.533 23.0294 31.1466 22.7445 30.8617C22.4596 30.5768 22.0732 30.4167 21.6703 30.4167L18.9358 30.4167" fill="#FFCB14"/>
<path fill-rule="evenodd" clip-rule="evenodd" d="M22.7592 31.9376C22.7592 32.2264 22.6444 32.5035 22.4401 32.7077C22.2359 32.912 21.9588 33.0267 21.67 33.0267L15.8972 33.0267C14.3996 33.0267 12.9633 32.4318 11.9044 31.3729C10.8454 30.3139 10.2505 28.8777 10.2505 27.3801C10.2505 25.8825 10.8454 24.4462 11.9044 23.3873C12.9633 22.3283 14.3996 21.7334 15.8972 21.7334L18.9355 21.7334C19.2244 21.7334 19.5014 21.8482 19.7056 22.0524C19.9099 22.2567 20.0247 22.5337 20.0247 22.8226C20.0247 23.1114 19.9099 23.3885 19.7056 23.5927C19.5014 23.797 19.2244 23.9117 18.9355 23.9117L17.4163 23.9117C17.1788 23.9117 16.9863 24.1043 16.9863 24.3417C16.9863 25.0335 16.7115 25.697 16.2224 26.1861C15.7332 26.6753 15.0698 26.9501 14.378 26.9501C14.1405 26.9501 13.948 27.1426 13.948 27.3801C13.948 27.6175 14.1405 27.8101 14.378 27.8101C15.2978 27.8101 16.18 27.4447 16.8305 26.7942C17.3787 26.246 17.7245 25.5331 17.8196 24.7717L18.9355 24.7717C19.4524 24.7717 19.9482 24.5664 20.3137 24.2008C20.6793 23.8353 20.8846 23.3395 20.8846 22.8226C20.8846 22.3056 20.6793 21.8098 20.3137 21.4443C19.9482 21.0788 19.4524 20.8734 18.9355 20.8734L15.8972 20.8734C14.1715 20.8734 12.5165 21.5589 11.2963 22.7792C10.076 23.9994 9.3905 25.6544 9.3905 27.3801C9.3905 29.1057 10.076 30.7607 11.2963 31.981C12.5165 33.2012 14.1715 33.8867 15.8972 33.8867L21.67 33.8867C22.1869 33.8867 22.6827 33.6814 23.0482 33.3158C23.4138 32.9503 23.6191 32.4545 23.6191 31.9376C23.6191 31.4206 23.4138 30.9248 23.0482 30.5593C22.6827 30.1938 22.1869 29.9884 21.67 29.9884L18.9355 29.9884C18.698 29.9884 18.5055 30.1809 18.5055 30.4184C18.5055 30.6559 18.698 30.8484 18.9355 30.8484L21.67 30.8484C21.9588 30.8484 22.2359 30.9631 22.4401 31.1674C22.6444 31.3717 22.7592 31.6487 22.7592 31.9376Z" fill="black"/>
</svg>
