<svg width="42" height="29" fill="none" xmlns="http://www.w3.org/2000/svg"><path fill-rule="evenodd" clip-rule="evenodd" d="M20.48.48v1.038h-.134a150.574 150.574 0 00-1.784.012 238.9 238.9 0 00-4.45.088c-1.686.05-3.461.125-5 .237-1.55.114-2.816.262-3.514.448A4.337 4.337 0 002.58 5.405a50.131 50.131 0 00-.793 9.127v.006c-.019 3.08.246 6.156.791 9.188a4.337 4.337 0 003.018 2.97c.697.187 1.965.335 3.516.448 1.539.112 3.314.188 5 .238a239.455 239.455 0 006.234.1h.134v1.038h-.136a154.855 154.855 0 01-1.793-.013 239.692 239.692 0 01-4.47-.088c-1.693-.05-3.485-.126-5.044-.24-1.545-.113-2.906-.265-3.71-.48l-.003-.002a5.375 5.375 0 01-3.762-3.761 51.168 51.168 0 01-.812-9.402 51.168 51.168 0 01.819-9.364 5.374 5.374 0 013.75-3.867l.007-.002c.805-.215 2.166-.368 3.71-.48 1.56-.114 3.352-.19 5.046-.24a239.985 239.985 0 016.262-.1h.136zm14.883 26.217c-.698.186-1.964.334-3.514.447a120.92 120.92 0 01-5 .238 239.462 239.462 0 01-6.234.1h-.135v1.038h.137a154.855 154.855 0 001.794-.013c1.175-.013 2.774-.038 4.468-.088 1.694-.05 3.486-.126 5.045-.24 1.545-.113 2.906-.265 3.71-.48l.008-.003a5.374 5.374 0 003.75-3.866l.002-.009a51.167 51.167 0 00.817-9.286c.02-3.152-.252-6.3-.811-9.401l-.511.092.503-.126a5.374 5.374 0 00-3.768-3.871c-.8-.196-2.158-.335-3.703-.438-1.559-.104-3.35-.173-5.043-.219a262.777 262.777 0 00-6.26-.091h-.138v1.037h.135a175.342 175.342 0 011.785.011c1.172.012 2.764.035 4.45.08 1.687.046 3.463.115 5.002.217 1.546.103 2.813.238 3.516.408a4.337 4.337 0 013.014 3.101c.546 3.035.811 6.113.792 9.197v.005a50.116 50.116 0 01-.792 9.057 4.337 4.337 0 01-3.019 3.103z" fill="#fff"/><path fill-rule="evenodd" clip-rule="evenodd" d="M17.941 22.443h.013l.012-.002a29.582 29.582 0 014.648 0l.01.001h.011a19 19 0 012.462.303c1.803.358 2.598.881 2.89 1.417.091.18.147.371.168.566h1.003a2.62 2.62 0 00-.287-1.032c-.518-.966-1.73-1.566-3.584-1.933a19.998 19.998 0 00-2.595-.319 30.586 30.586 0 00-4.805 0c-.874.048-1.744.154-2.604.32-1.874.338-3.085.966-3.594 1.932-.17.32-.269.672-.293 1.032H12.4c.022-.197.08-.389.173-.565.283-.536 1.079-1.09 2.888-1.416l.01-.002a18.38 18.38 0 012.47-.302zm2.34-14.715c2.663 0 4.832 2.173 4.832 4.865s-2.169 4.866-4.833 4.866-4.833-2.174-4.833-4.866c0-2.692 2.17-4.865 4.833-4.865zm0-1c3.22 0 5.832 2.626 5.832 5.865 0 3.24-2.611 5.866-5.833 5.866-3.221 0-5.833-2.627-5.833-5.866 0-3.24 2.612-5.865 5.833-5.865z" fill="#fff"/></svg>